<?xml version="1.0" encoding="utf-8"?>
<!DOCTYPE svg PUBLIC "-//W3C//DTD SVG 1.0//EN" "http://www.w3.org/TR/2001/REC-SVG-20010904/DTD/svg10.dtd">
<svg version="1.0" xmlns="http://www.w3.org/2000/svg" width="650px" height="650px" viewBox="0 0 650 650" preserveAspectRatio="xMidYMid meet">
 <g fill="#000000">
  <path d="M168.5 568.7 c-6.5 -2.2 -9.9 -4.3 -13.9 -8.7 -4.5 -5 -5.6 -7.7 -5.6 -13.8 0 -6.4 18.1 -78.5 22.4 -89.4 3.8 -9.8 12.6 -27.5 15.8 -32.2 10.9 -15.8 21 -26.5 31 -32.9 21.9 -13.9 43.8 -20.1 71.3 -20.1 15.6 0 16.4 0.1 31 4.1 15.9 4.3 33.9 9.5 49.5 14.3 52.5 16 63.4 17.8 78.5 13 10 -3.2 13.3 -5.1 19.3 -11.2 6.1 -6.1 10.5 -14.3 12.2 -22.5 1.7 -8.1 0.8 -22.5 -1.9 -29.4 -4.3 -11.3 -17.6 -23.4 -35.6 -32.6 -35.1 -17.9 -49.8 -28.2 -64.6 -45.8 -11.7 -13.9 -18.9 -29.2 -22.4 -47.3 -2.1 -10.9 -1.7 -33.4 0.8 -44.3 2.4 -10.6 9.2 -26.8 15.5 -36.8 6.6 -10.6 20.4 -25.4 30.2 -32.3 14.6 -10.3 36.4 -18.9 53.1 -20.9 11.5 -1.5 27 0.3 47.3 5.6 17.2 4.4 21.4 6.3 26.4 12 11.4 12.9 9.9 33.5 -3.2 42.3 -4.2 2.8 -5.7 3.2 -11.1 3.2 -3.5 0 -13.1 -1.5 -21.7 -3.4 -24.3 -5.5 -27.8 -5.9 -34.5 -4.6 -15.2 3 -29.5 13.6 -39 28.7 -14 22.5 -11.6 50.7 5.9 69 8.8 9.1 13.2 12.1 33.6 22.8 40.6 21.3 51.3 29.7 65.7 52 6.1 9.4 9.7 18 12.6 30.2 1.8 7.5 2 11 1.6 23.3 -0.5 16.9 -2.8 26.3 -10.2 41.8 -15.4 32.1 -38.7 49 -76.8 55.8 -10.8 1.9 -30.4 1.4 -43.2 -1.1 -10.8 -2.1 -48.1 -12.3 -90 -24.5 -16.7 -4.9 -27.6 -6.4 -37.2 -5.1 -14 2 -22.1 5.4 -32.4 13.7 -6.9 5.5 -14.1 15.1 -18 23.9 -1.1 2.5 -3.8 12.5 -6 22.1 -3.1 14.1 -5.1 20.4 -10 31.7 -3.4 7.8 -7.4 17.8 -8.9 22.2 -3.4 10 -4.9 12.9 -9.4 18.2 -6.8 7.8 -19.4 11.8 -28.1 9z"/>
  <path d="M105.6 444.5 c-7.3 -3 -13.8 -9.1 -16.7 -15.9 -1.7 -4.1 -2.1 -6.4 -1.7 -12.6 0.4 -6.3 2.4 -13.3 13 -44.5 11.4 -33.6 19.1 -55.6 24.6 -70.5 10.8 -29.3 31.4 -87.6 35.9 -101.5 4.6 -14.4 13 -34.6 15.2 -36.5 0.9 -0.8 3.9 -6.7 6.5 -13 10.1 -24.1 15 -31.5 30 -45.7 10.6 -10 16.5 -13.8 29.1 -18.9 19.2 -7.9 40 -9.7 63 -5.6 15.3 2.8 30.8 4.2 46 4.3 11.4 0 11.9 0.1 9.5 1.6 -1.4 0.9 -7.1 6.3 -12.7 12 -11.3 11.3 -17.3 20.5 -22.4 33.9 l-3.1 8 -8.2 -1.3 c-29.9 -4.9 -33.8 -5.2 -43.1 -2.8 -20.2 5.3 -36.4 24.9 -42.5 51.5 -0.7 3 -4.7 14.5 -8.8 25.5 -7.4 19.8 -19.5 53.5 -33.7 94 -7.6 21.5 -20.9 58.7 -28.8 80 -2.4 6.6 -6.3 15.4 -8.5 19.6 -2.3 4.2 -5.8 12.6 -7.7 18.7 -2.9 9 -4.3 11.9 -7.2 14.8 -7.6 7.6 -17.1 9.3 -27.7 4.9z"/>
  <path d="M222 333.8 c0 -3.7 25.1 -76.7 39.4 -114.8 2 -5.2 3.6 -10.2 3.7 -11 0 -0.8 0.7 0.3 1.5 2.5 1.8 4.7 14.4 49.9 18.4 66 1.5 6.1 3.9 15.3 5.4 20.6 1.4 5.2 3.5 13.5 4.5 18.3 l1.9 8.7 -6.6 -0.8 c-9 -1.1 -25.7 -0.7 -34.5 0.7 -7.7 1.3 -25.8 7.3 -29.1 9.6 -2.5 1.7 -4.6 1.8 -4.6 0.2z"/>
 </g>
</svg>