<?xml version="1.0" encoding="utf-8"?>
<!DOCTYPE svg PUBLIC "-//W3C//DTD SVG 1.0//EN" "http://www.w3.org/TR/2001/REC-SVG-20010904/DTD/svg10.dtd">
<svg version="1.0" xmlns="http://www.w3.org/2000/svg" width="1024px" height="1024px" viewBox="0 0 1024 1024" preserveAspectRatio="xMidYMid meet">
 <g fill="#fafbfd">
  <path d="M3.9 1020.3 c-0.1 -2.1 -0.3 -10.5 -0.3 -18.7 -0.2 -12.7 -0.4 -15 -1.9 -16.1 -1.6 -1.1 -1.7 -30.7 -1.7 -493.4 l0 -492.1 512 0 512 0 0 512 0 512 -510 0 -510 0 -0.1 -3.7z m626.6 -177.4 c42.6 -8.6 77.3 -31.5 101.2 -66.9 9 -13.3 20.2 -40.8 23.7 -58 3.8 -18.8 4 -26.2 1.5 -45 -4.3 -32.2 -23.9 -67.1 -50.6 -90.2 -18.5 -16 -35 -25.2 -54.4 -30.4 -9.9 -2.6 -11.9 -2.8 -39.9 -3.3 -28.9 -0.6 -29.6 -0.7 -33.7 -3 -8.8 -5.1 -12.9 -15.7 -12 -31.6 0.6 -11.1 2.9 -19 7.7 -26.6 4 -6.1 11.8 -13.3 16.6 -15.4 4.8 -2.1 18.1 -4.5 42.9 -8 10.5 -1.4 26.7 -3.7 36 -5 9.4 -1.3 22 -2.9 28 -3.5 6.1 -0.6 13.9 -1.8 17.4 -2.7 19.4 -4.9 34 -26.2 31 -45.4 -2.7 -17.6 -15 -29.4 -35.6 -34.4 l-7.2 -1.8 -2 -6.1 c-1.1 -3.3 -4 -14.2 -6.5 -24.1 -12.2 -49.1 -20.4 -74.8 -28.3 -89.5 -14.5 -26.9 -37.1 -51 -61.5 -65.5 -10.8 -6.5 -32.6 -14.8 -45.8 -17.6 -13.4 -2.8 -34.2 -3 -47.7 -0.5 -30.4 5.5 -54.1 17.8 -77.1 40.1 -27 26 -37.4 46.4 -50.8 99 -6.7 26.4 -23.9 97.4 -31.1 128 -1.4 6.1 -3.3 14.4 -4.3 18.5 -3.3 14.2 -13.1 55.5 -17 72 -2.2 9.1 -6.2 26 -8.9 37.5 -2.7 11.6 -6.3 27.1 -8.1 34.5 -3.3 14 -10.6 46.3 -16.5 72.6 -1.9 8.4 -4.1 18 -5 21.4 -2.2 8.6 -0.4 16.2 6.7 28.3 5.1 8.6 12.4 15.1 21.3 19.2 9.8 4.6 13.6 5 21.7 2.5 13.7 -4.2 25.1 -16.7 27.7 -30.3 0.5 -2.8 1.4 -7.4 1.9 -10.2 0.6 -2.7 3.9 -16.7 7.5 -31 3.6 -14.3 8.6 -35 11.2 -46 6.1 -25.6 7.5 -28.5 15.8 -32 3.1 -1.3 10.4 -1.5 48.4 -1.5 28.5 0 46.2 0.4 48.6 1.1 2.7 0.7 6.9 4 14.6 11.3 15.2 14.5 25.9 21.4 38.7 25.2 4.9 1.4 12 1.8 43.9 2.3 l38 0.6 5.8 2.9 c8.4 4.3 18.2 15 23.4 25.6 5.5 11.1 6.6 16 6.6 30.5 0.2 24.5 -4.7 38.9 -18.2 54.4 -7.2 8.3 -15.1 13.4 -26.8 17.1 -8 2.6 -10.9 3 -20.2 3 -13.8 0 -21.5 -2.2 -30 -8.6 -8.2 -6.2 -12.4 -11.2 -23.7 -28.3 -13.8 -20.9 -17 -23.9 -29.5 -27.5 -5.2 -1.5 -5.9 -1.5 -13.1 0.3 -10.2 2.6 -14.6 5 -21.3 11.6 -6.3 6.1 -11.5 16.1 -13.5 25.8 -1 4.9 -0.9 7 0.5 13.2 2.1 9.6 4.6 14.2 15.2 27.8 23.8 30.8 36.9 43 56.8 53 25.2 12.7 52 16.2 80 10.6z"/>
  <path d="M425.9 510.3 c-6.7 -2.8 -6.4 -10.3 1.4 -37.8 3.1 -11 7.7 -28.8 10.3 -39.5 9.4 -40.1 12.3 -52.7 13.4 -58.5 1.4 -7 8 -34 14.9 -61 2.6 -10.4 6.3 -22.5 8.1 -26.9 7.1 -16.9 23.8 -31.3 42.2 -36.2 7 -1.8 26.3 -1.8 35.3 0.1 19.8 4.2 36.7 19.5 44.1 40 2.5 6.8 10.3 36 13.4 50 1 4.4 3 12.1 4.5 17 4 13.4 5.5 19.6 5.5 23.6 l0 3.6 -6.4 0.6 c-7.9 0.7 -29.7 5.1 -38.8 7.8 -18.7 5.5 -39.5 18.2 -52.3 32.1 -7.9 8.5 -15.8 19.3 -20.5 28.1 -6.5 12.1 -12.7 32.7 -14.6 48 -0.3 2.8 -1.4 5.8 -2.8 7.4 l-2.3 2.6 -26.3 0.1 c-18 0.1 -27.2 -0.3 -29.1 -1.1z"/>
 </g>
 <g fill="#00242c">
  <path d="M591.2 848 c-26.8 -2.8 -49.1 -12.4 -69 -29.8 -9.8 -8.5 -35 -38.8 -42 -50.3 -2.7 -4.5 -6.2 -17.7 -6.2 -23.5 0 -12.2 6.1 -26.7 14.6 -35.1 6.5 -6.3 12.6 -9.4 22.9 -11.9 8.1 -1.9 13.6 -1.5 21.9 1.6 8.4 3.2 12.6 7.5 24.3 25.1 12 18.2 16.1 23.1 24.4 29.3 12.1 9.1 27.2 11 44.2 5.6 11.7 -3.7 19.6 -8.8 26.8 -17.1 6.9 -7.9 9.8 -12.5 13.1 -20.9 4.8 -12.1 6.6 -32.7 3.9 -44.5 -3.4 -14.7 -16.9 -33 -28.8 -39.1 l-5.8 -2.9 -38 -0.6 c-31.9 -0.5 -39 -0.9 -43.9 -2.3 -12.8 -3.8 -23.5 -10.7 -38.7 -25.2 -7.7 -7.3 -11.9 -10.6 -14.6 -11.3 -2.4 -0.7 -19.3 -1.1 -45.6 -1.1 -35.3 0 -42.3 0.2 -45.4 1.5 -8.3 3.5 -9.7 6.4 -15.8 32 -2.6 11 -7.6 31.7 -11.2 46 -3.6 14.3 -6.9 28.3 -7.5 31 -0.5 2.8 -1.4 7.4 -1.9 10.2 -3.6 18.8 -22.9 33.7 -41.5 32 -13.5 -1.3 -27.6 -10.7 -35.2 -23.4 -8.3 -14.2 -9.6 -22.4 -5.8 -38 1.4 -5.9 4.8 -20.9 7.6 -33.3 4.8 -21 7 -30.9 17 -74 5.8 -24.9 11.5 -49.3 14.4 -61 2.4 -10.1 12 -50.5 15.6 -66 1 -4.1 2.9 -12.4 4.3 -18.5 7.2 -30.6 24.4 -101.6 31.1 -128 13.4 -52.6 23.8 -73 50.8 -99 23 -22.2 46.5 -34.5 77.1 -40.2 13.9 -2.6 40 -2.3 53.7 0.6 13.3 2.8 35 11.2 45.8 17.6 24.4 14.5 47 38.6 61.5 65.5 7.9 14.7 16.1 40.4 28.3 89.5 2.5 9.9 5.4 20.8 6.5 24.1 l2 6.1 7.2 1.8 c11 2.7 18.5 6.5 24.5 12.5 6.6 6.8 9.9 13.4 11.3 23.4 2.6 17.5 -4.9 34.9 -18.9 44.3 -7 4.7 -14.4 6.8 -29.7 8.3 -6 0.6 -18.6 2.2 -28 3.5 -9.3 1.3 -25.5 3.6 -36 5 -24.8 3.5 -38.1 5.9 -42.9 8 -4.8 2.1 -12.6 9.3 -16.6 15.4 -11.9 18.6 -9.8 44.1 4.3 52.2 4.1 2.3 4.8 2.4 33.7 3 28 0.5 30 0.7 39.9 3.3 40.1 10.7 78.3 45.6 95.5 87.3 5.5 13.6 7.3 19.5 9.1 30.8 3.2 20.1 2.9 33.5 -1.1 53.5 -3.5 17.2 -14.7 44.7 -23.7 58 -19.8 29.3 -47 50.2 -79.6 61 -22.1 7.4 -43.9 10.1 -63.9 8z m-110.6 -342.4 c1.4 -1.5 2.5 -4.5 2.8 -7.3 1.9 -15.3 8.1 -35.9 14.6 -48 4.7 -8.8 12.6 -19.6 20.5 -28.1 12.8 -13.9 33.6 -26.6 52.3 -32.1 9.1 -2.7 30.9 -7.1 38.8 -7.8 l6.4 -0.6 -0.6 -3.6 c-0.4 -2 -1.7 -7 -3 -11.1 -1.3 -4.1 -3.6 -12.2 -5 -18 -12.7 -52.8 -16.6 -64 -26.4 -75.5 -12.6 -14.9 -27.3 -21.5 -48 -21.5 -18.4 0 -34.7 8.2 -47.9 24 -8.2 9.8 -11.1 18.8 -25.5 77.5 -2.4 9.9 -4.9 20.7 -5.6 24 -1.1 5.8 -4 18.4 -13.4 58.5 -2.6 10.7 -7.2 28.5 -10.3 39.5 -6.5 23.2 -6.9 25.5 -5.3 28.5 2.2 4 5.4 4.5 30.1 4.4 l23.3 -0.2 2.2 -2.6z"/>
 </g>
 <g fill="#d0d0d0">
  <path d="M16.4 1006.6 c-0.3 -0.7 -0.1 -2.9 0.4 -4.7 0.6 -2.4 1.4 -3.4 2.9 -3.5 1.6 -0.1 2.2 0.6 2.6 3.3 0.3 1.9 0.3 4.1 0 4.9 -0.7 1.8 -5.2 1.8 -5.9 0z"/>
  <path d="M30.1 1006.6 c-1.3 -1.6 -0.5 -4.6 1.3 -4.6 2.3 0 3.6 2.2 2.5 4.2 -1.2 2.2 -2.2 2.3 -3.8 0.4z"/>
  <path d="M1.8 995.9 c-1.4 -0.8 -1.8 -2.4 -1.8 -7.4 0 -6.3 0.1 -6.5 2.5 -6.5 3 0 3.1 0.4 4 8.8 0.5 5.5 0.4 6.2 -1.2 6.2 -1 0 -2.6 -0.5 -3.5 -1.1z"/>
 </g>
 <g fill="#a6a6a6">
  <path d="M3 1007 c0 -0.5 -0.7 -1 -1.5 -1 -1.2 0 -1.5 -1.4 -1.5 -7 0 -7.4 0.7 -8.3 5.1 -6 1.6 0.9 1.9 2.2 1.9 8 0 6.3 -0.2 7 -2 7 -1.1 0 -2 -0.4 -2 -1z"/>
 </g>
 <g fill="#8c8c8c">
  <path d="M1.8 1017.3 c-1.5 -0.4 -1.8 -1.6 -1.8 -7.4 l0 -6.9 2.9 0 c3.5 0 3.9 1 3.9 9.3 0.1 6 -0.2 6.3 -5 5z"/>
 </g>
 <g fill="#605f60">
  <path d="M0 1018.9 l0 -5 3.3 0.3 c3.1 0.3 3.2 0.5 3.5 5.1 l0.3 4.7 -3.5 0 -3.6 0 0 -5.1z"/>
 </g>
</svg>